<?xml version="1.0" encoding="utf-8"?>
<!-- Generator: Adobe Illustrator 24.2.1, SVG Export Plug-In . SVG Version: 6.00 Build 0)  -->
<svg version="1.1" id="Layer_1" xmlns="http://www.w3.org/2000/svg" xmlns:xlink="http://www.w3.org/1999/xlink" x="0px" y="0px"
	 viewBox="0 0 1833 602" style="enable-background:new 0 0 1833 602;" xml:space="preserve">
<style type="text/css">
	.st0{fill:#637A91;}
</style>
<path class="st0" d="M952.5,367.7L1073.8,489l42.7-43.7L995.2,324L952.5,367.7 M1027.7,262.6c-7.9,0-16.4-1-23-3.8L774.3,488
	l-42.7-42.7l149.9-149.6l-35.8-36l-14.6,14.2l-29.3-28.5v57.8l-14.2,14.2l-71.2-72l14.2-14.2h56.8l-28.3-28.5l72-72
	c23.7-23.7,61.7-23.7,85.3,0l-42.7,43.7l28.5,28.3L888,217.1l36.2,36l36.8-38c-2.8-6.7-4-15.2-4-22.7c0-39.8,31.6-71.2,70.8-71.2
	c11.9,0,22.5,2.8,32,8.5l-54,54L1036,214l54-54c5.7,9.5,8.5,19.6,8.5,32.4C1098.5,231.2,1067.2,262.6,1027.7,262.6z"/>
</svg>
