<?xml version="1.0" encoding="utf-8"?>
<!-- Generator: Adobe Illustrator 24.1.3, SVG Export Plug-In . SVG Version: 6.00 Build 0)  -->
<svg version="1.1" id="Layer_1" xmlns="http://www.w3.org/2000/svg" xmlns:xlink="http://www.w3.org/1999/xlink" x="0px" y="0px"
	 viewBox="0 0 1833 602" style="enable-background:new 0 0 1833 602;" xml:space="preserve">
<path d="M882.82,278.37h67.89v45.27h-67.89V278.37 M452.83,278.37h67.89v45.27h-67.89V278.37 M724.41,52.07v67.89h-45.27V52.07
	L724.41,52.07 M541.54,108.64l48.21,48.43l-32.14,31.91L509.4,141L541.54,108.64 M813.8,156.85l47.98-48.21L894.14,141l-48.21,47.98
	L813.8,156.85 M701.77,165.22c74.99,0,135.78,60.79,135.78,135.78c0,50.25-27.39,94.14-67.89,117.68v40.73
	c0,12.49-10.13,22.63-22.63,22.63h-90.53c-12.49,0-22.63-10.13-22.63-22.63v-40.73c-40.51-23.54-67.89-67.44-67.89-117.68
	C565.99,226.01,626.78,165.22,701.77,165.22 M747.04,504.68v22.63c0,12.49-10.13,22.63-22.63,22.63h-45.27
	c-12.49,0-22.63-10.13-22.63-22.63v-22.63H747.04 M679.15,436.79h45.27v-48.21c39.16-9.96,67.89-45.48,67.89-87.59
	c0-49.99-40.53-90.53-90.53-90.53c-50,0-90.53,40.53-90.53,90.53c0,42.09,28.75,77.62,67.89,87.59v48.21H679.15z"/>
<path d="M1080.14,158.88h31.58v31.58h-31.58v78.95c0,17.44-14.14,31.58-31.58,31.58c17.44,0,31.58,14.14,31.58,31.58v78.95h31.58
	v31.58h-31.58c-16.9-4.26-31.58-14.21-31.58-31.58v-63.16c0-17.44-14.14-31.58-31.58-31.58h-15.79v-31.58h15.79
	c17.44,0,31.58-14.14,31.58-31.58v-63.16C1048.56,173.02,1062.7,158.88,1080.14,158.88 M1301.21,158.88
	c17.44,0,31.58,14.14,31.58,31.58v63.16c0,17.44,14.14,31.58,31.58,31.58h15.79v31.58h-15.79c-17.44,0-31.58,14.14-31.58,31.58
	v63.16c0,17.44-14.14,31.58-31.58,31.58h-31.58v-31.58h31.58v-78.95c0-17.44,14.14-31.58,31.58-31.58
	c-17.44,0-31.58-14.14-31.58-31.58v-78.95h-31.58v-31.58H1301.21 M1190.68,348.37c8.72,0,15.79,7.07,15.79,15.79
	s-7.07,15.79-15.79,15.79c-8.72,0-15.79-7.07-15.79-15.79S1181.96,348.37,1190.68,348.37 M1127.52,348.37
	c8.72,0,15.79,7.07,15.79,15.79s-7.07,15.79-15.79,15.79c-8.72,0-15.79-7.07-15.79-15.79S1118.79,348.37,1127.52,348.37
	 M1253.84,348.37c8.72,0,15.79,7.07,15.79,15.79s-7.07,15.79-15.79,15.79c-8.72,0-15.79-7.07-15.79-15.79
	S1245.12,348.37,1253.84,348.37z"/>
</svg>
