<?xml version="1.0" encoding="utf-8"?>
<!-- Generator: Adobe Illustrator 24.2.1, SVG Export Plug-In . SVG Version: 6.00 Build 0)  -->
<svg version="1.1" id="Layer_1" xmlns="http://www.w3.org/2000/svg" xmlns:xlink="http://www.w3.org/1999/xlink" x="0px" y="0px"
	 viewBox="0 0 1833 602" style="enable-background:new 0 0 1833 602;" xml:space="preserve">
<style type="text/css">
	.st0{fill:#637A91;}
</style>
<path class="st0" d="M799.8,151h33.3v33.3h-33.3v83.3c0,18.4-14.9,33.3-33.3,33.3c18.4,0,33.3,14.9,33.3,33.3v83.3h33.3V451h-33.3
	c-17.8-4.5-33.3-15-33.3-33.3V351c0-18.4-14.9-33.3-33.3-33.3h-16.7v-33.3h16.7c18.4,0,33.3-14.9,33.3-33.3v-66.7
	C766.5,165.9,781.4,151,799.8,151 M1033.2,151c18.4,0,33.3,14.9,33.3,33.3V251c0,18.4,14.9,33.3,33.3,33.3h16.7v33.3h-16.7
	c-18.4,0-33.3,14.9-33.3,33.3v66.7c0,18.4-14.9,33.3-33.3,33.3h-33.3v-33.3h33.3v-83.3c0-18.4,14.9-33.3,33.3-33.3
	c-18.4,0-33.3-14.9-33.3-33.3v-83.3h-33.3V151L1033.2,151 M916.5,351c9.2,0,16.7,7.5,16.7,16.7s-7.5,16.7-16.7,16.7
	c-9.2,0-16.7-7.5-16.7-16.7S907.3,351,916.5,351 M849.8,351c9.2,0,16.7,7.5,16.7,16.7s-7.5,16.7-16.7,16.7
	c-9.2,0-16.7-7.5-16.7-16.7S840.6,351,849.8,351 M983.2,351c9.2,0,16.7,7.5,16.7,16.7s-7.5,16.7-16.7,16.7
	c-9.2,0-16.7-7.5-16.7-16.7S974,351,983.2,351z"/>
</svg>
