<?xml version="1.0" encoding="utf-8"?>
<!-- Generator: Adobe Illustrator 24.1.3, SVG Export Plug-In . SVG Version: 6.00 Build 0)  -->
<svg version="1.1" id="Layer_1" xmlns="http://www.w3.org/2000/svg" xmlns:xlink="http://www.w3.org/1999/xlink" x="0px" y="0px"
	 viewBox="0 0 1833 602" style="enable-background:new 0 0 1833 602;" xml:space="preserve">
<style type="text/css">
	.st0{fill:#637A91;}
</style>
<path class="st0" d="M942.9,565v-50.7h33.8V565h42.2v-67.6h25.3l-84.5-76l-84.5,76h25.3V565H942.9z"/>
<path class="st0" d="M466.8,294.5h56v37.4h-56V294.5 M112,294.5h56v37.4h-56V294.5 M336.1,107.8v56h-37.4v-56L336.1,107.8
	 M185.2,154.4l39.8,40l-26.5,26.3l-39.8-39.6L185.2,154.4 M409.9,194.2l39.6-39.8l26.7,26.7l-39.8,39.6L409.9,194.2 M317.4,201.1
	c61.9,0,112,50.2,112,112c0,41.5-22.6,77.7-56,97.1v33.6c0,10.3-8.4,18.7-18.7,18.7h-74.7c-10.3,0-18.7-8.4-18.7-18.7v-33.6
	c-33.4-19.4-56-55.6-56-97.1C205.4,251.3,255.5,201.1,317.4,201.1 M354.8,481.2v18.7c0,10.3-8.4,18.7-18.7,18.7h-37.4
	c-10.3,0-18.7-8.4-18.7-18.7v-18.7H354.8 M298.7,425.2h37.4v-39.8c32.3-8.2,56-37.5,56-72.3c0-41.2-33.4-74.7-74.7-74.7
	s-74.7,33.4-74.7,74.7c0,34.7,23.7,64.1,56,72.3L298.7,425.2L298.7,425.2z"/>
<path class="st0" d="M1463.8,564.8v-50.7h33.8v50.7h42.2v-67.6h25.3l-84.5-76l-84.5,76h25.3v67.6H1463.8z"/>
<path class="st0" d="M1294.3,224.8h-137.5c-23.4,0-42.3-18.9-42.3-42.3s18.9-42.3,42.3-42.3h7.5c7-24.4,29.5-42.3,56-42.3
	c32.1,0,58.2,26,58.2,58.2v5.3h15.9c17.5,0,31.7,14.2,31.7,31.7S1311.8,224.8,1294.3,224.8 M1298,140.5
	c-7.2-36.4-39.2-63.8-77.8-63.8c-30.6,0-57.1,17.3-70.4,42.6c-31.8,3.5-56.6,30.4-56.6,63.2c0,35.1,28.4,63.5,63.5,63.5h137.5
	c29.2,0,52.9-23.7,52.9-52.9C1347.2,165.2,1325.5,142.5,1298,140.5z"/>
<path class="st0" d="M1122.9,292.7c-24.8,24.8-40.1,59-40.1,96.8s15.3,72,40.1,96.8l19.3-19.3c-19.9-19.7-32.1-47.1-32.1-77.5
	c0-30.3,12.2-57.8,32.1-77.5L1122.9,292.7 M1316.6,292.7l-19.3,19.3c19.9,19.7,32.1,47.2,32.1,77.5c0,30.4-12.2,57.8-32.1,77.5
	l19.3,19.3c24.8-24.8,40.1-59,40.1-96.8S1341.3,317.5,1316.6,292.7 M1161.7,331.5c-14.9,14.9-24.1,35.5-24.1,58.1
	s9.2,43.1,24.1,58.1l19.3-19.3c-9.9-9.9-16-23.5-16-38.8c0-15.2,6.2-28.9,16-38.8L1161.7,331.5 M1277.8,331.5l-19.3,19.3
	c9.9,9.9,16,23.5,16,38.8c0,15.2-6.2,28.9-16,38.8l19.3,19.3c14.9-14.9,24.1-35.5,24.1-58.1S1292.7,346.4,1277.8,331.5
	 M1219.8,362.1c-15.1,0-27.4,12.3-27.4,27.4s12.3,27.4,27.4,27.4s27.4-12.3,27.4-27.4S1234.9,362.1,1219.8,362.1 M1206.1,444.3v54.8
	h-13.7c-7.6,0-13.7,6.1-13.7,13.7h-95.9v27.4h95.9c0,7.6,6.1,13.7,13.7,13.7h54.8c7.6,0,13.7-6.1,13.7-13.7h95.9v-27.4h-95.9
	c0-7.6-6.1-13.7-13.7-13.7h-13.7v-54.8H1206.1z"/>
<path class="st0" d="M1764.2,153.2l29.3-50.8v75.4v12.9h-129V74.6h12.9v80.9l35.5-61.5l41.9,24.4l27.3-47.3l11.2,6.4l-33.7,58.4
	l-42-24.2l-38.2,66.1h14.6l28.3-48.8L1764.2,153.2z"/>
<path class="st0" d="M1377.7,20c-28,0-50.7,11.3-50.7,25.3s22.7,25.3,50.7,25.3s50.7-11.3,50.7-25.3S1405.7,20,1377.7,20 M1327.1,58
	v19c0,14,22.7,25.3,50.7,25.3s50.7-11.3,50.7-25.3V58c0,14-22.7,25.3-50.7,25.3S1327.1,72,1327.1,58 M1327.1,89.7v19
	c0,14,22.7,25.3,50.7,25.3s50.7-11.3,50.7-25.3v-19c0,14-22.7,25.3-50.7,25.3S1327.1,103.7,1327.1,89.7z"/>
<path class="st0" d="M1545.4,87.6c5.5,0,10.5,2,14,6l6-6v20.1h-20.1l9-9c-2.5-2-5.5-3.5-9-3.5c-7,0-12.5,5.5-12.5,12.5
	c0,7,5.5,12.5,12.5,12.5c4,0,7.5-2,10-5h8.5c-3,7.5-10,12.5-18.6,12.5c-11,0-20.1-9-20.1-20.1S1534.4,87.6,1545.4,87.6
	 M1512.8,107.6c0-5.5,1.5-10.5,3.5-15.1h-1c-9.5,0-17.6-8-17.6-17.5s8-17.5,17.6-17.5s17.6,8,17.6,17.5c0,1,0,2-0.5,2.5
	c4-1.5,8-2.5,13-2.5c2.5,0,5,0.5,7.5,1v-1c0-1.5,0-3.5-0.5-5l10.5-8c1-1,1-2,0.5-3l-10-17.5c-0.5-1.5-1.5-1.5-3-1.5l-12.5,5
	c-2.5-2-5.5-3.5-8.5-5l-2-13.5c0.5-0.5-1-1.5-2-1.5h-20.1c-1,0-2.5,1-2.5,2l-2,13.5c-3,1-5.5,3-8.5,4.5l-12-5c-1.5,0-2.5,0-3.5,1.5
	l-10,17.5c-0.5,1,0,2,1,3l10.5,8c0,1.5-0.5,3.5-0.5,5s0,3.5,0.5,5l-10.5,8.5c-1,1-1,2-0.5,3l10,17.6c0.5,1,1.5,1,3,1l12.5-5
	c2.5,2,5.5,3.5,8.5,5l2,13.5c0,1,1,2,2.5,2h12.5C1514.8,120.2,1512.8,114.2,1512.8,107.6z"/>
<path class="st0" d="M1716.6,291.3c0,13.9-11.2,25.1-25.1,25.1c-13.9,0-25.1-11.2-25.1-25.1c0-13.9,11.2-25.1,25.1-25.1
	C1705.3,266.2,1716.6,277.4,1716.6,291.3 M1716.6,333.5v33.2h-69.1v-12.6c0-13.9,19.7-25.1,44-25.1
	C1700.9,329,1709.5,330.7,1716.6,333.5 M1798.3,366.7h-69.1V259.9h69.1V366.7 M1748,313.3c0-8.7,7-15.7,15.7-15.7
	c8.7,0,15.7,7,15.7,15.7c0,8.7-7,15.7-15.7,15.7C1755,329,1748,322,1748,313.3 M1785.7,285c-6.9,0-12.6-5.6-12.6-12.6h-18.8
	c0,7-5.6,12.6-12.6,12.6v56.5c7,0,12.6,5.6,12.6,12.6h18.8c0-6.9,5.7-12.6,12.6-12.6V285z"/>
<path class="st0" d="M1769.4,459.5c7.4,0,13.5,6,13.5,13.5v67.4c0,7.4-6.1,13.5-13.5,13.5h-80.9c-7.5,0-13.5-6.1-13.5-13.5v-67.4
	c0-7.5,6-13.5,13.5-13.5h6.7V446c0-18.6,15.1-33.7,33.7-33.7s33.7,15.1,33.7,33.7v13.5H1769.4 M1728.9,425.7
	c-11.2,0-20.2,9-20.2,20.2v13.5h40.5V446C1749.1,434.8,1740.1,425.7,1728.9,425.7 M1722.2,533.6l42.1-42.1l-9.5-9.5l-32.6,32.6
	l-17.5-17.4l-9.5,9.4L1722.2,533.6z"/>
</svg>
