<?xml version="1.0" encoding="utf-8"?>
<!-- Generator: Adobe Illustrator 24.1.3, SVG Export Plug-In . SVG Version: 6.00 Build 0)  -->
<svg version="1.1" id="Layer_1" xmlns="http://www.w3.org/2000/svg" xmlns:xlink="http://www.w3.org/1999/xlink" x="0px" y="0px"
	 viewBox="0 0 1833 602" style="enable-background:new 0 0 1833 602;" xml:space="preserve">
<path d="M325.63,366.52l125.6,125.6l44.17-45.22l-125.6-125.6L325.63,366.52 M403.5,257.67c-8.16,0-16.96-1.05-23.86-3.98
	L141.2,491.08l-44.17-44.17L252.15,292l-37.05-37.26l-15.07,14.65l-30.35-29.52v59.87l-14.65,14.65l-73.69-74.52l14.65-14.65h58.82
	L125.5,195.7l74.52-74.52c24.49-24.49,63.85-24.49,88.34,0L244.2,166.4l29.52,29.31l-14.86,14.86l37.47,37.26l38.1-39.36
	c-2.93-6.91-4.19-15.7-4.19-23.45c0-41.24,32.66-73.69,73.27-73.69c12.35,0,23.24,2.93,33.08,8.79l-55.89,55.89l31.4,31.4
	l55.89-55.89c5.86,9.84,8.79,20.31,8.79,33.49C476.77,225.22,444.32,257.67,403.5,257.67z"/>
<path d="M863.95,165.18v18.9h113.39v-18.9H863.95 M1109.61,410.85c0,10.02-3.97,18.9-11.34,26.65
	c-7.56,7.56-16.06,11.15-26.46,11.15H769.46c-10.39,0-18.9-3.59-26.46-11.15c-7.37-7.75-11.34-16.63-11.34-26.65v-75.59h94.49v18.9
	h37.8v-18.9h113.39v18.9h37.8v-18.9h94.49V410.85 M778.91,207.14c6.43-15.31,17.95-23.06,34.58-23.06h12.66v-18.9
	c0-10.39,3.4-18.9,10.77-26.65c7.37-7.37,16.44-11.15,27.02-11.15h113.39c10.58,0,19.65,3.78,27.02,11.15
	c7.37,7.75,10.77,16.25,10.77,26.65v18.9h12.66c16.63,0,28.16,7.75,34.58,23.06l39.31,90.33h-86.55v-18.9h-37.8v18.9H863.95v-18.9
	h-37.8v18.9H739.6L778.91,207.14z"/>
<path d="M1357.9,259.91l117.36-117.56l34.32,34.52c-4.87,17.26,3.05,36.14,18.88,45.28v112.49c-12.18,6.9-20.3,20.1-20.3,35.13
	c0,22.43,18.18,40.61,40.61,40.61s40.61-18.18,40.61-40.61c0-15.03-8.12-28.22-20.3-35.13v-98.68l42.03,42.44
	c-1.42,3.05-1.42,6.5-1.42,10.15c0,22.43,18.18,40.61,40.61,40.61s40.61-18.18,40.61-40.61s-18.18-40.61-40.61-40.61
	c-3.65,0-7.11,0-10.15,1.42l-52.18-52.18c5.28-18.88-4.47-39.59-23.35-47.51c-8.73-3.25-17.87-4.06-25.99-1.83l-34.52-34.32
	l16.04-15.84c15.84-16.04,41.42-16.04,57.26,0l162.24,162.24c16.04,15.84,16.04,41.42,0,57.26L1577.4,479.41
	c-15.84,16.04-41.42,16.04-57.26,0L1357.9,317.17C1341.86,301.33,1341.86,275.75,1357.9,259.91z"/>
</svg>
