<?xml version="1.0" encoding="utf-8"?>
<!-- Generator: Adobe Illustrator 24.2.1, SVG Export Plug-In . SVG Version: 6.00 Build 0)  -->
<svg version="1.1" id="Layer_1" xmlns="http://www.w3.org/2000/svg" xmlns:xlink="http://www.w3.org/1999/xlink" x="0px" y="0px"
	 viewBox="0 0 1833 602" style="enable-background:new 0 0 1833 602;" xml:space="preserve">
<style type="text/css">
	.st0{fill:#637A91;}
</style>
<path class="st0" d="M775,110.3c-36.2,36.2-58.5,86.1-58.5,141.3S738.8,356.8,775,393l28.2-28.2c-29.1-28.8-46.9-68.8-46.9-113.1
	c0-44.2,17.8-84.4,46.9-113.1L775,110.3 M1057.8,110.3l-28.2,28.2c29.1,28.8,46.9,68.9,46.9,113.1c0,44.4-17.8,84.4-46.9,113.1
	l28.2,28.2c36.2-36.2,58.5-86.1,58.5-141.3S1093.9,146.5,1057.8,110.3 M831.7,167c-21.8,21.8-35.2,51.8-35.2,84.8
	s13.4,62.9,35.2,84.8l28.2-28.2c-14.5-14.5-23.4-34.3-23.4-56.6c0-22.2,9.1-42.2,23.4-56.6L831.7,167 M1001.2,167L973,195.2
	c14.5,14.5,23.4,34.3,23.4,56.6c0,22.2-9.1,42.2-23.4,56.6l28.2,28.2c21.8-21.8,35.2-51.8,35.2-84.8S1022.9,188.7,1001.2,167
	 M916.5,211.7c-22,0-40,18-40,40s18,40,40,40s40-18,40-40S938.5,211.7,916.5,211.7 M896.5,331.7v80h-20c-11.1,0-20,8.9-20,20h-140
	v40h140c0,11.1,8.9,20,20,20h80c11.1,0,20-8.9,20-20h140v-40h-140c0-11.1-8.9-20-20-20h-20v-80H896.5z"/>
</svg>
