<?xml version="1.0" encoding="utf-8"?>
<!-- Generator: Adobe Illustrator 24.1.3, SVG Export Plug-In . SVG Version: 6.00 Build 0)  -->
<svg version="1.1" id="Layer_1" xmlns="http://www.w3.org/2000/svg" xmlns:xlink="http://www.w3.org/1999/xlink" x="0px" y="0px"
	 viewBox="0 0 1833 602" style="enable-background:new 0 0 1833 602;" xml:space="preserve">
<path d="M405.77,551.72v-93.31h62.21v93.31h77.76V427.31h46.65L436.88,287.34L281.36,427.31h46.65v124.41H405.77z"/>
<path d="M1365.02,551.32v-93.31h62.21v93.31h77.76V426.91h46.66l-155.52-139.96l-155.52,139.96h46.65v124.41H1365.02z"/>
<path d="M737.31,50.28c-45.64,45.64-73.88,108.68-73.88,178.28s28.24,132.64,73.88,178.28l35.56-35.56
	c-36.56-36.31-59.01-86.75-59.01-142.73c0-55.73,22.44-106.41,59.01-142.73L737.31,50.28 M1093.88,50.28l-35.56,35.56
	c36.56,36.31,59.01,87,59.01,142.73c0,55.98-22.44,106.41-59.01,142.73l35.56,35.56c45.64-45.64,73.88-108.68,73.88-178.28
	S1139.52,95.92,1093.88,50.28 M808.67,121.64c-27.49,27.49-44.38,65.31-44.38,106.92s16.9,79.43,44.38,106.92l35.56-35.56
	c-18.16-18.16-29.5-43.37-29.5-71.36s11.35-53.21,29.5-71.36L808.67,121.64 M1022.51,121.64l-35.56,35.56
	c18.16,18.16,29.5,43.37,29.5,71.36s-11.35,53.21-29.5,71.36l35.56,35.56c27.49-27.49,44.38-65.31,44.38-106.92
	S1050,149.13,1022.51,121.64 M915.59,178.13c-27.85,0-50.43,22.58-50.43,50.43s22.58,50.43,50.43,50.43s50.43-22.58,50.43-50.43
	S943.45,178.13,915.59,178.13 M890.38,329.43v100.87h-25.22c-13.93,0-25.22,11.29-25.22,25.22H663.43v50.43h176.52
	c0,13.93,11.29,25.22,25.22,25.22h100.87c13.93,0,25.22-11.29,25.22-25.22h176.52v-50.43H991.24c0-13.93-11.29-25.22-25.22-25.22
	h-25.22V329.43H890.38z"/>
</svg>
