<?xml version="1.0" encoding="utf-8"?>
<!-- Generator: Adobe Illustrator 24.2.1, SVG Export Plug-In . SVG Version: 6.00 Build 0)  -->
<svg version="1.1" id="Layer_1" xmlns="http://www.w3.org/2000/svg" xmlns:xlink="http://www.w3.org/1999/xlink" x="0px" y="0px"
	 viewBox="0 0 1833 602" style="enable-background:new 0 0 1833 602;" xml:space="preserve">
<style type="text/css">
	.st0{fill:#637A91;}
</style>
<path class="st0" d="M1033.3,401H816.7c-36.9,0-66.6-29.8-66.6-66.6s29.8-66.6,66.6-66.6h11.8c11-38.4,46.5-66.6,88.2-66.6
	c50.6,0,91.7,41,91.7,91.7v8.3h25c27.6,0,49.9,22.4,49.9,49.9C1083.4,378.6,1060.9,401,1033.3,401 M1039.1,268.2
	c-11.3-57.3-61.8-100.5-122.6-100.5c-48.2,0-90,27.3-110.9,67.1c-50.1,5.5-89.2,47.9-89.2,99.6c0,55.3,44.7,100,100,100h216.6
	c46,0,83.3-37.3,83.3-83.3C1116.7,307.1,1082.5,271.3,1039.1,268.2z"/>
</svg>
